<svg id="Layer_1" data-name="Layer 1" xmlns="http://www.w3.org/2000/svg" viewBox="0 0 2048 2048"><defs><style>.cls-1{fill:#fff;}</style></defs><title>blackcongress_round</title><rect width="2048" height="2048" rx="185.25" transform="translate(0 2048) rotate(-90)"/><rect class="cls-1" x="963.01" y="413.32" width="125.95" height="107.72" transform="translate(1493.16 -558.81) rotate(90)"/><path class="cls-1" d="M1026.39,240.63h0a31.09,31.09,0,0,1,31.09,31.09v11.17a0,0,0,0,1,0,0h-63a0,0,0,0,1,0,0V272.51A31.89,31.89,0,0,1,1026.39,240.63Z"/><rect class="cls-1" x="296" y="1674.91" width="1455" height="72.09"/><rect class="cls-1" x="1021.84" y="220.74" width="9.94" height="17.4"/><path class="cls-1" d="M379.69,1261.45V1655H1685.54V1261.45Zm107.71,353H441V1325.29a23.24,23.24,0,0,1,23.25-23.24h0a23.15,23.15,0,0,1,23.15,23.16Zm115.18,0h-46.4V1325.29a23.23,23.23,0,0,1,23.24-23.24h0a23.16,23.16,0,0,1,23.16,23.16Zm115.17,0h-46.4V1325.29a23.24,23.24,0,0,1,23.24-23.24h0a23.16,23.16,0,0,1,23.16,23.16Zm115.17,0h-46.4V1325.29a23.24,23.24,0,0,1,23.25-23.24h0a23.15,23.15,0,0,1,23.15,23.16Zm111,0H897.55V1325.29a23.24,23.24,0,0,1,23.25-23.24h0A23.16,23.16,0,0,1,944,1325.21Zm115.17,0h-46.4V1325.29a23.23,23.23,0,0,1,23.24-23.24h0a23.16,23.16,0,0,1,23.16,23.16Zm115.17,0h-46.4V1325.29a23.24,23.24,0,0,1,23.25-23.24h0a23.16,23.16,0,0,1,23.15,23.16Zm115.18,0h-46.4V1325.29a23.23,23.23,0,0,1,23.24-23.24h0a23.16,23.16,0,0,1,23.16,23.16Zm105.23,0h-46.4V1325.29a23.23,23.23,0,0,1,23.24-23.24h0a23.16,23.16,0,0,1,23.16,23.16Zm115.17,0h-46.4V1325.29a23.24,23.24,0,0,1,23.24-23.24h0a23.16,23.16,0,0,1,23.16,23.16Zm115.17,0h-46.4V1325.29a23.24,23.24,0,0,1,23.25-23.24h0a23.15,23.15,0,0,1,23.15,23.16Z" transform="translate(0 0)"/><path class="cls-1" d="M581,1037.73v203.83H1466V1037.73Zm44.64,179.62H594.84V1077a14.25,14.25,0,0,1,14.26-14.26h2.37a14.2,14.2,0,0,1,14.2,14.2Zm76.51,0H671.36V1077a14.25,14.25,0,0,1,14.25-14.26H688a14.2,14.2,0,0,1,14.2,14.2Zm76.52,0H747.87V1077a14.25,14.25,0,0,1,14.25-14.26h2.38a14.2,14.2,0,0,1,14.2,14.2Zm76.51,0H824.38V1077a14.26,14.26,0,0,1,14.26-14.26H841a14.2,14.2,0,0,1,14.2,14.2Zm73.76,0H898.15V1077a14.25,14.25,0,0,1,14.25-14.26h2.37A14.2,14.2,0,0,1,929,1077Zm76.52,0H974.66V1077a14.25,14.25,0,0,1,14.25-14.26h2.37a14.21,14.21,0,0,1,14.21,14.2Zm76.51,0h-30.83V1077a14.26,14.26,0,0,1,14.26-14.26h2.37A14.2,14.2,0,0,1,1082,1077Zm76.51,0h-30.82V1077a14.25,14.25,0,0,1,14.25-14.26h2.37a14.2,14.2,0,0,1,14.2,14.2Zm69.91,0H1197.6V1077a14.25,14.25,0,0,1,14.25-14.26h2.37a14.2,14.2,0,0,1,14.2,14.2Zm76.52,0h-30.83V1077a14.25,14.25,0,0,1,14.25-14.26h2.37a14.21,14.21,0,0,1,14.21,14.2Zm76.51,0h-30.83V1077a14.26,14.26,0,0,1,14.26-14.26h2.37a14.2,14.2,0,0,1,14.2,14.2Zm72.92,0h-30.83V1077a14.25,14.25,0,0,1,14.25-14.26h2.37a14.21,14.21,0,0,1,14.21,14.2Z" transform="translate(0 0)"/><path class="cls-1" d="M627.44,814v203.83h796.27V814Zm41.33,179.62H641.24V852.74a13.69,13.69,0,0,1,13.69-13.69h.21a13.64,13.64,0,0,1,13.63,13.64Zm68.33,0H709.57V852.74a13.69,13.69,0,0,1,13.69-13.69h.2a13.64,13.64,0,0,1,13.64,13.64Zm68.32,0H777.9V852.74a13.68,13.68,0,0,1,13.68-13.69h.21a13.64,13.64,0,0,1,13.63,13.64Zm68.33,0H846.22V852.74a13.69,13.69,0,0,1,13.69-13.69h.21a13.64,13.64,0,0,1,13.63,13.64Zm65.87,0H912.09V852.74a13.69,13.69,0,0,1,13.69-13.69H926a13.64,13.64,0,0,1,13.63,13.64Zm68.33,0H980.42V852.74a13.69,13.69,0,0,1,13.68-13.69h.21A13.64,13.64,0,0,1,1008,852.69Zm68.32,0h-27.52V852.74a13.68,13.68,0,0,1,13.68-13.69h.21a13.64,13.64,0,0,1,13.63,13.64Zm68.33,0h-27.53V852.74a13.69,13.69,0,0,1,13.69-13.69h.2a13.64,13.64,0,0,1,13.64,13.64Zm62.43,0H1179.5V852.74a13.69,13.69,0,0,1,13.68-13.69h.21A13.64,13.64,0,0,1,1207,852.69Zm68.32,0h-27.52V852.74a13.68,13.68,0,0,1,13.68-13.69h.21a13.64,13.64,0,0,1,13.63,13.64Zm68.33,0h-27.53V852.74a13.69,13.69,0,0,1,13.69-13.69h.21a13.64,13.64,0,0,1,13.63,13.64Zm65.11,0h-27.52V852.74A13.68,13.68,0,0,1,1395,839.05h.21a13.64,13.64,0,0,1,13.63,13.64Z" transform="translate(0 0)"/><path class="cls-1" d="M1034.27,419.6H1016c-206.84,0-374.52,167.68-374.52,374.52h767.27C1408.79,587.28,1241.11,419.6,1034.27,419.6ZM716.55,787.31H687.09V722.09a12.48,12.48,0,0,1,12.48-12.48h4.55A12.42,12.42,0,0,1,716.55,722Zm73.12,0H760.22V722.09a12.47,12.47,0,0,1,12.47-12.48h4.55A12.42,12.42,0,0,1,789.67,722Zm73.13,0H833.34V722.09a12.48,12.48,0,0,1,12.48-12.48h4.54A12.43,12.43,0,0,1,862.8,722Zm73.12,0H906.46V722.09a12.48,12.48,0,0,1,12.48-12.48h4.55A12.43,12.43,0,0,1,935.92,722Zm70.49,0H977V722.09a12.48,12.48,0,0,1,12.48-12.48H994A12.43,12.43,0,0,1,1006.41,722Zm73.12,0h-29.46V722.09a12.48,12.48,0,0,1,12.48-12.48h4.55A12.42,12.42,0,0,1,1079.53,722Zm73.12,0h-29.46V722.09a12.48,12.48,0,0,1,12.48-12.48h4.55A12.42,12.42,0,0,1,1152.65,722Zm73.13,0h-29.46V722.09a12.48,12.48,0,0,1,12.48-12.48h4.54A12.43,12.43,0,0,1,1225.78,722Zm66.8,0h-29.45V722.09a12.47,12.47,0,0,1,12.47-12.48h4.55A12.42,12.42,0,0,1,1292.58,722Zm73.13,0h-29.46V722.09a12.48,12.48,0,0,1,12.48-12.48h4.54A12.43,12.43,0,0,1,1365.71,722Z" transform="translate(0 0)"/><path class="cls-1" d="M991.19,285.37V397.23H1060V285.37Zm11.93,105.05h-7V297.15a3.48,3.48,0,0,1,7,0Zm17.29,0h-7V297.15a3.49,3.49,0,0,1,7,0Zm17.29,0h-7V297.15a3.49,3.49,0,0,1,7,0Zm17.29,0h-7V297.15a3.49,3.49,0,0,1,7,0Z" transform="translate(0 0)"/></svg>